<svg width="285" height="30" viewBox="0 0 285 30" fill="none" xmlns="http://www.w3.org/2000/svg">
<path d="M5.8 28.48C5.61333 29.0667 4.98667 29.36 3.92 29.36C2.88 29.36 1.84 29 0.8 28.28C1.62667 26.04 3.26667 22.32 5.72 17.12C8.2 11.8933 9.85333 8 10.68 5.44C10.76 5.12 10.8 4.85333 10.8 4.64C10.8 4.4 10.7067 4.08 10.52 3.68C10.3333 3.28 10.1333 2.96 9.92 2.72L9.64 2.36L9.8 1.56C12.1733 0.919998 14.9867 0.599998 18.24 0.599998L21.32 0.759999C21.5867 0.999999 21.8533 1.62667 22.12 2.64C22.3867 3.65333 22.56 5.17333 22.64 7.2C22.72 9.22667 22.7733 13.0267 22.8 18.6C22.8267 22.8933 23.36 25.04 24.4 25.04C24.6667 25.04 25.24 24.9067 26.12 24.64L26.52 24.52L27.36 26.8C26.2667 27.6267 24.9867 28.28 23.52 28.76C22.0533 29.24 20.7333 29.48 19.56 29.48C17.8533 29.48 16.68 28.96 16.04 27.92C15.4267 26.8533 15.12 25.4933 15.12 23.84C15.12 22.16 15.1333 21 15.16 20.36C14.6533 20.2533 13.6667 20.2 12.2 20.2C10.7333 20.2 9.46667 20.3467 8.4 20.64C7.41333 23.28 6.54667 25.8933 5.8 28.48ZM15.32 17C15.4533 14.68 15.52 12.3467 15.52 10C15.52 7.65333 15.3867 5.94667 15.12 4.88C14.8533 4.88 14.6667 4.90667 14.56 4.96C13.9733 6.74667 12.4 10.76 9.84 17H15.32ZM43.1831 29.96C42.0631 29.96 40.4231 29.3733 38.2631 28.2C36.1298 27.0267 34.8898 26.4 34.5431 26.32C32.9431 28.4267 31.4498 29.48 30.0631 29.48C29.6898 29.48 29.1298 28.96 28.3831 27.92C27.6365 26.88 27.2631 25.9067 27.2631 25C27.2631 24.6 27.6765 24.1067 28.5031 23.52C29.3298 22.9067 30.2765 22.48 31.3431 22.24C32.0631 20.56 32.7698 18.0133 33.4631 14.6C34.1831 11.1867 34.5431 8.18667 34.5431 5.6C34.5431 5.17333 34.3965 4.69333 34.1031 4.16C33.8365 3.62667 33.5698 3.2 33.3031 2.88L32.8631 2.4L32.9831 1.6C34.4498 0.933331 37.4898 0.599998 42.1031 0.599998C42.5298 1.26666 42.7431 2.4 42.7431 4C42.7431 5.6 42.0365 8.37333 40.6231 12.32C39.2098 16.2667 37.7965 19.6933 36.3831 22.6C39.0498 23.2933 41.5965 23.64 44.0231 23.64C44.5831 23.64 45.0365 23.5067 45.3831 23.24C45.7565 22.9733 46.1565 22.4133 46.5831 21.56L48.7831 22.32C48.3565 24.8533 47.7031 26.76 46.8231 28.04C45.9698 29.32 44.7565 29.96 43.1831 29.96ZM64.1597 29.96C63.0397 29.96 61.3997 29.3733 59.2397 28.2C57.1064 27.0267 55.8664 26.4 55.5197 26.32C53.9197 28.4267 52.4264 29.48 51.0397 29.48C50.6664 29.48 50.1064 28.96 49.3597 27.92C48.613 26.88 48.2397 25.9067 48.2397 25C48.2397 24.6 48.653 24.1067 49.4797 23.52C50.3064 22.9067 51.253 22.48 52.3197 22.24C53.0397 20.56 53.7464 18.0133 54.4397 14.6C55.1597 11.1867 55.5197 8.18667 55.5197 5.6C55.5197 5.17333 55.373 4.69333 55.0797 4.16C54.813 3.62667 54.5464 3.2 54.2797 2.88L53.8397 2.4L53.9597 1.6C55.4264 0.933331 58.4664 0.599998 63.0797 0.599998C63.5064 1.26666 63.7197 2.4 63.7197 4C63.7197 5.6 63.013 8.37333 61.5997 12.32C60.1864 16.2667 58.773 19.6933 57.3597 22.6C60.0264 23.2933 62.573 23.64 64.9997 23.64C65.5597 23.64 66.013 23.5067 66.3597 23.24C66.733 22.9733 67.133 22.4133 67.5597 21.56L69.7597 22.32C69.333 24.8533 68.6797 26.76 67.7997 28.04C66.9464 29.32 65.733 29.96 64.1597 29.96ZM83.0641 29.28H82.1441C82.1441 27.0667 82.7707 23.0267 84.0241 17.16C85.2774 11.2933 85.9707 7.78667 86.1041 6.64C86.2641 5.46667 86.3574 4.58667 86.3841 4C83.8774 4.05333 81.8774 4.44 80.3841 5.16C79.6107 4.28 79.1307 2.98667 78.9441 1.28C80.2507 0.826665 82.4907 0.599998 85.6641 0.599998L98.2641 0.999998C98.8774 0.999998 99.8507 0.973332 101.184 0.919999C101.291 1.77333 101.344 2.49333 101.344 3.08C101.344 4.33333 100.557 4.96 98.9841 4.96C98.5041 4.96 97.7441 4.88 96.7041 4.72C95.6907 4.56 94.7974 4.46667 94.0241 4.44C93.9441 5.29333 93.2507 8.76 91.9441 14.84C90.6641 20.92 90.0241 25.3867 90.0241 28.24C88.8507 28.9333 86.5307 29.28 83.0641 29.28ZM119.316 29.48C118.169 29.48 117.183 29.1333 116.356 28.44C115.529 27.7467 115.116 26.7467 115.116 25.44C115.116 24.1333 115.676 21.1867 116.796 16.6C115.996 16.4133 115.036 16.32 113.916 16.32C112.796 16.32 111.609 16.48 110.356 16.8C109.103 22.2133 108.449 25.9733 108.396 28.08C107.223 28.7733 104.836 29.12 101.236 29.12H100.476C100.476 27.6 101.236 23.76 102.756 17.6C104.276 11.44 105.036 7.41333 105.036 5.52C105.036 5.06667 104.889 4.57333 104.596 4.04C104.329 3.48 104.049 3.04 103.756 2.72L103.316 2.24L103.396 1.44C105.183 0.879999 108.169 0.599998 112.356 0.599998C112.783 1.18667 112.996 2.09333 112.996 3.32C112.996 4.54667 112.396 7.81333 111.196 13.12H117.596C118.583 8.93333 119.076 5.61333 119.076 3.16C119.076 2.68 119.063 2.29333 119.036 2C121.649 1.06667 124.169 0.599998 126.596 0.599998C126.783 0.786666 126.876 1.46667 126.876 2.64C126.876 3.78666 126.209 7.25333 124.876 13.04C123.569 18.8267 122.916 22.5467 122.916 24.2C122.916 24.76 123.089 25.04 123.436 25.04C124.103 25.04 124.823 24.8667 125.596 24.52L126.476 26.76C125.516 27.5867 124.369 28.2533 123.036 28.76C121.729 29.24 120.489 29.48 119.316 29.48ZM131.113 28.48C130.926 29.0667 130.299 29.36 129.233 29.36C128.193 29.36 127.152 29 126.112 28.28C126.939 26.04 128.579 22.32 131.033 17.12C133.513 11.8933 135.166 8 135.993 5.44C136.073 5.12 136.113 4.85333 136.113 4.64C136.113 4.4 136.019 4.08 135.833 3.68C135.646 3.28 135.446 2.96 135.233 2.72L134.953 2.36L135.113 1.56C137.486 0.919998 140.299 0.599998 143.553 0.599998L146.633 0.759999C146.899 0.999999 147.166 1.62667 147.433 2.64C147.699 3.65333 147.873 5.17333 147.953 7.2C148.033 9.22667 148.086 13.0267 148.113 18.6C148.139 22.8933 148.673 25.04 149.713 25.04C149.979 25.04 150.553 24.9067 151.433 24.64L151.833 24.52L152.673 26.8C151.579 27.6267 150.299 28.28 148.833 28.76C147.366 29.24 146.046 29.48 144.873 29.48C143.166 29.48 141.993 28.96 141.353 27.92C140.739 26.8533 140.433 25.4933 140.433 23.84C140.433 22.16 140.446 21 140.473 20.36C139.966 20.2533 138.979 20.2 137.513 20.2C136.046 20.2 134.779 20.3467 133.713 20.64C132.726 23.28 131.859 25.8933 131.113 28.48ZM140.633 17C140.766 14.68 140.833 12.3467 140.833 10C140.833 7.65333 140.699 5.94667 140.433 4.88C140.166 4.88 139.979 4.90667 139.873 4.96C139.286 6.74667 137.713 10.76 135.153 17H140.633ZM157.166 29.28H156.246C156.246 27.0667 156.872 23.0267 158.126 17.16C159.379 11.2933 160.072 7.78667 160.206 6.64C160.366 5.46667 160.459 4.58667 160.486 4C157.979 4.05333 155.979 4.44 154.486 5.16C153.712 4.28 153.232 2.98667 153.046 1.28C154.352 0.826665 156.592 0.599998 159.766 0.599998L172.366 0.999998C172.979 0.999998 173.952 0.973332 175.286 0.919999C175.392 1.77333 175.446 2.49333 175.446 3.08C175.446 4.33333 174.659 4.96 173.086 4.96C172.606 4.96 171.846 4.88 170.806 4.72C169.792 4.56 168.899 4.46667 168.126 4.44C168.046 5.29333 167.352 8.76 166.046 14.84C164.766 20.92 164.126 25.3867 164.126 28.24C162.952 28.9333 160.632 29.28 157.166 29.28ZM186.345 29.28H185.425C185.425 27.0667 186.052 23.0267 187.305 17.16C188.559 11.2933 189.252 7.78667 189.385 6.64C189.545 5.46667 189.639 4.58667 189.665 4C187.159 4.05333 185.159 4.44 183.665 5.16C182.892 4.28 182.412 2.98667 182.225 1.28C183.532 0.826665 185.772 0.599998 188.945 0.599998L201.545 0.999998C202.159 0.999998 203.132 0.973332 204.465 0.919999C204.572 1.77333 204.625 2.49333 204.625 3.08C204.625 4.33333 203.839 4.96 202.265 4.96C201.785 4.96 201.025 4.88 199.985 4.72C198.972 4.56 198.079 4.46667 197.305 4.44C197.225 5.29333 196.532 8.76 195.225 14.84C193.945 20.92 193.305 25.3867 193.305 28.24C192.132 28.9333 189.812 29.28 186.345 29.28ZM226.757 4.16C227.531 5.22667 228.104 6.36 228.477 7.56C228.851 8.76 229.037 10.1867 229.037 11.84C229.037 13.4933 228.744 15.3333 228.157 17.36C227.597 19.3867 226.744 21.3333 225.597 23.2C224.477 25.04 222.917 26.5467 220.917 27.72C218.917 28.8933 216.637 29.48 214.077 29.48C210.957 29.48 208.504 28.4267 206.717 26.32C204.931 24.2133 204.037 21.56 204.037 18.36C204.037 15.16 204.637 12.24 205.837 9.6C207.064 6.93333 208.797 4.77333 211.037 3.12C213.304 1.44 215.824 0.599998 218.597 0.599998C220.464 0.599998 222.091 0.919998 223.477 1.56C224.891 2.2 225.984 3.06666 226.757 4.16ZM213.357 25.88C213.837 26.2533 214.531 26.44 215.437 26.44C216.371 26.44 217.237 25.9067 218.037 24.84C218.864 23.7467 219.504 22.3467 219.957 20.64C220.811 17.28 221.237 13.8 221.237 10.2C221.237 5.82667 220.171 3.64 218.037 3.64C217.024 3.64 216.104 4.12 215.277 5.08C214.477 6.01333 213.837 7.24 213.357 8.76C212.371 11.8533 211.877 15.1733 211.877 18.72C211.877 22.6933 212.371 25.08 213.357 25.88ZM241.349 24.2C242.443 24.2 243.829 23.72 245.509 22.76C245.563 22.3867 246.176 19.6533 247.349 14.56C248.523 9.44 249.109 5.8 249.109 3.64C249.109 2.84 249.096 2.29333 249.069 2C251.736 1.06667 254.283 0.599998 256.709 0.599998C256.869 0.786666 256.949 1.24 256.949 1.96C256.949 3.56 256.283 7.29333 254.949 13.16C253.643 19.0267 252.989 22.48 252.989 23.52C252.989 24.5333 253.176 25.04 253.549 25.04C253.789 25.04 254.509 24.8667 255.709 24.52L256.549 26.76C254.043 28.5733 251.629 29.48 249.309 29.48C248.216 29.48 247.323 29.1733 246.629 28.56C245.936 27.9467 245.509 27.12 245.349 26.08C242.069 28.3467 239.256 29.48 236.909 29.48C235.389 29.48 234.136 29.0667 233.149 28.24C232.189 27.3867 231.709 26.24 231.709 24.8C231.709 23.3333 232.283 20.3333 233.429 15.8C234.576 11.2667 235.149 7.82667 235.149 5.48C235.149 5.02667 235.003 4.53333 234.709 4C234.443 3.46667 234.176 3.04 233.909 2.72L233.469 2.24L233.589 1.44C235.269 0.879999 238.163 0.599998 242.269 0.599998C242.776 1.29333 243.029 2.46667 243.029 4.12C243.029 5.77333 242.456 8.96 241.309 13.68C240.163 18.4 239.589 21.24 239.589 22.2C239.589 23.5333 240.176 24.2 241.349 24.2ZM266.793 28.24C265.219 28.9333 263.299 29.28 261.033 29.28C260.259 29.28 259.566 29.2133 258.953 29.08C258.953 27.32 259.699 23.36 261.193 17.2C262.713 11.0133 263.473 7.12 263.473 5.52C263.473 4.88 262.993 4.02667 262.033 2.96L261.593 2.44L261.713 1.56C265.339 0.919998 269.366 0.599998 273.793 0.599998C276.459 0.599998 278.566 1.12 280.113 2.16C281.659 3.17333 282.433 4.66667 282.433 6.64C282.433 8.58667 281.899 10.3733 280.832 12C279.766 13.6 278.246 14.8533 276.273 15.76C277.153 18.7467 277.993 21.08 278.793 22.76C279.593 24.44 280.246 25.28 280.753 25.28C281.179 25.28 281.846 25.12 282.753 24.8L283.233 24.64L284.193 26.8C281.846 28.5867 279.366 29.48 276.753 29.48C274.166 29.48 272.473 28.1733 271.673 25.56C270.979 23.2667 270.419 20.4267 269.993 17.04H268.593C267.393 22.64 266.793 26.3733 266.793 28.24ZM270.233 13.56C271.086 13.56 271.819 13.2933 272.433 12.76C273.073 12.2267 273.553 11.5333 273.873 10.68C274.459 9 274.753 7.37333 274.753 5.8C274.753 4.22666 274.046 3.44 272.633 3.44C272.206 3.44 271.779 3.48 271.353 3.56C271.326 4.38667 270.673 7.69333 269.393 13.48C269.579 13.5333 269.859 13.56 270.233 13.56Z" fill="black"/>
</svg>
